<svg width="100" height="100" viewBox="0 0 100 100" fill="none" xmlns="http://www.w3.org/2000/svg">
<path d="M29.0375 29.0375C29.3278 28.7464 29.6726 28.5156 30.0523 28.358C30.4319 28.2005 30.8389 28.1194 31.25 28.1194C31.661 28.1194 32.068 28.2005 32.4477 28.358C32.8273 28.5156 33.1722 28.7464 33.4625 29.0375L50 45.5812L66.5375 29.0375C66.828 28.7469 67.173 28.5164 67.5526 28.3592C67.9322 28.202 68.3391 28.121 68.75 28.121C69.1609 28.121 69.5677 28.202 69.9474 28.3592C70.327 28.5164 70.6719 28.7469 70.9625 29.0375C71.253 29.328 71.4835 29.673 71.6407 30.0526C71.798 30.4322 71.8789 30.8391 71.8789 31.25C71.8789 31.6609 71.798 32.0677 71.6407 32.4474C71.4835 32.827 71.253 33.1719 70.9625 33.4625L54.4187 50L70.9625 66.5375C71.253 66.828 71.4835 67.173 71.6407 67.5526C71.798 67.9322 71.8789 68.3391 71.8789 68.75C71.8789 69.1609 71.798 69.5677 71.6407 69.9474C71.4835 70.327 71.253 70.6719 70.9625 70.9625C70.6719 71.253 70.327 71.4835 69.9474 71.6407C69.5677 71.798 69.1609 71.8789 68.75 71.8789C68.3391 71.8789 67.9322 71.798 67.5526 71.6407C67.173 71.4835 66.828 71.253 66.5375 70.9625L50 54.4187L33.4625 70.9625C33.1719 71.253 32.827 71.4835 32.4474 71.6407C32.0677 71.798 31.6609 71.8789 31.25 71.8789C30.8391 71.8789 30.4322 71.798 30.0526 71.6407C29.673 71.4835 29.328 71.253 29.0375 70.9625C28.7469 70.6719 28.5164 70.327 28.3592 69.9474C28.202 69.5677 28.121 69.1609 28.121 68.75C28.121 68.3391 28.202 67.9322 28.3592 67.5526C28.5164 67.173 28.7469 66.828 29.0375 66.5375L45.5812 50L29.0375 33.4625C28.7464 33.1722 28.5156 32.8273 28.358 32.4477C28.2005 32.068 28.1194 31.661 28.1194 31.25C28.1194 30.8389 28.2005 30.4319 28.358 30.0523C28.5156 29.6726 28.7464 29.3278 29.0375 29.0375Z" fill="black"/>
</svg>
